# xmcd
#
# Track frame offsets: 
#        150
#        21180
#        32649
#        43977
#        57106
#        83202
#        97105
#        118255
#        142210
#        153165
#        159626
#
# Disc length: 2333 seconds
#
# Revision: 0
# Processed by: cddbd v1.5.2PL0 Copyright (c) Steve Scherf et al.
# Submitted via: ExactAudioCopy v0.99pb5
#
DISCID=96091b0b
DTITLE=Mikkel Nordsø - DUO
DYEAR=2000
DGENRE=Blues
TTITLE0=Hidden well
TTITLE1=Asturias part 1
TTITLE2=Song to the kings
TTITLE3=Asturias part 2
TTITLE4=Twins
TTITLE5=On Air
TTITLE6=Point of View
TTITLE7=Johny hungry
TTITLE8=prelude
TTITLE9=Interlude
TTITLE10=Benjamin
EXTD=
EXTT0=
EXTT1=
EXTT2=
EXTT3=
EXTT4=
EXTT5=
EXTT6=
EXTT7=
EXTT8=
EXTT9=
EXTT10=
PLAYORDER=
